<?xml version="1.0" encoding="UTF-8"?>
<svg xmlns="http://www.w3.org/2000/svg" width="322.15mm" height="194.51mm" viewBox="0 0 913.18 551.37">
  <defs>
    <style>
      .cls-1 {
        fill: #d8d8d8;
      }

      .cls-2, .cls-3, .cls-4, .cls-5, .cls-6, .cls-7, .cls-8, .cls-9, .cls-10, .cls-11, .cls-12, .cls-13 {
        stroke: #964e4e;
        stroke-linecap: round;
      }

      .cls-2, .cls-3, .cls-4, .cls-5, .cls-6, .cls-7, .cls-9, .cls-10, .cls-11, .cls-12, .cls-13 {
        stroke-linejoin: round;
      }

      .cls-2, .cls-3, .cls-8, .cls-10 {
        fill: none;
      }

      .cls-3, .cls-8 {
        stroke-width: .75px;
      }

      .cls-4 {
        fill: #b2d0b0;
      }

      .cls-4, .cls-6, .cls-7, .cls-9, .cls-10, .cls-11, .cls-12, .cls-13 {
        stroke-width: .5px;
      }

      .cls-5 {
        fill: #964e4e;
      }

      .cls-6 {
        fill: #d1d0d1;
      }

      .cls-7 {
        fill: #262624;
      }

      .cls-8 {
        stroke-miterlimit: 10;
      }

      .cls-9, .cls-14 {
        fill: #fbc16e;
      }

      .cls-11 {
        fill: #fbd3c5;
      }

      .cls-12 {
        fill: #3c3c3b;
      }

      .cls-13 {
        fill: #302d29;
      }
    </style>
  </defs>
  <g id="Calque_24" data-name="Calque 24">
    <circle class="cls-1" cx="206.86" cy="342.11" r="206.86"/>
  </g>
  <g id="hair">
    <g id="Calque_22" data-name="Calque 22">
      <path class="cls-9" d="m192.87,148.99s-7.67-2.92-14.76.69-30.32,22.5-31.98,43.34-1.25,15-1.25,15c0,0-2.08,11.04-7.92,16.46-5.83,5.42-21.05,21.67-21.05,21.67,0,0-8.54,5.84-7.92,23.13.31,8.75-7.29,12.29-10.63,15.84,0,0-5.83,6.69-5.83,16.04,0,2.29-1.67,11.25,12.09,15.42s200.03-3.33,200.03-3.33c0,0,21.25-5.63,7.29-24.38,0,0-13.34-6.25-12.92-17.5s3.13-20.63-11.04-28.34c-14.17-7.71-25.84-5.21-32.92-20.84-4.38-15.63-7.92-37.3-7.92-37.3,0,0-9.71-32.47-32.44-36.26-15-2.5-20.84.35-20.84.35Z"/>
    </g>
  </g>
  <g id="body">
    <g id="Calque_3" data-name="Calque 3">
      <path class="cls-11" d="m185.09,234.84s3.06,3.89,3.33,7.92c.24,3.5.35,9.93.35,9.93l6.74,9.58,18.75-.07,3.47-8.54.28-10.9s1.18-5.9,2.99-7.5-35.91-.42-35.91-.42Z"/>
    </g>
    <g id="Calque_4" data-name="Calque 4">
      <path class="cls-11" d="m168.42,205.53c-1.81-5.17-8.66-1.57-5.21,3.26,2.34,3.02-.2,5.02.92,7.71,1.79,4.29,6.05,3.15,5.12-1.39,0,0-.83-9.58-.83-9.58Z"/>
      <path class="cls-11" d="m237.11,205.39c1.81-5.17,8.66-1.57,5.21,3.26-2.34,3.02.2,5.02-.92,7.71-1.79,4.29-6.05,3.15-5.12-1.39,0,0,.83-9.58.83-9.58Z"/>
    </g>
    <g id="Calque_2" data-name="Calque 2">
      <path class="cls-11" d="m237.18,193.23c-.17,27.32.09,33.39-26.26,48.55-.62.21-5.73,3.28-11.25.63-11.65-5.61-25.78-13.16-29.12-21.41-2.66-6.56-3.32-32.63-2.34-40.06l14.59-19.17,19.38-7.29,23.96,11.46,11.04,27.3Z"/>
    </g>
  </g>
  <g id="face">
    <g id="Calque_26" data-name="Calque 26">
      <path class="cls-10" d="m195.4,225.64c.77,1,2.71,3.24,5.94,4.06,3.72,1.01,8.63-.72,11.81-4.79"/>
      <path class="cls-10" d="m202.07,202.3c.44,2.48,1.13,4.29,1.67,5.47,1.02,2.24,1.93,3.17,1.88,4.76-.05,1.63-1.08,2.9-1.88,3.69"/>
      <path class="cls-10" d="m205.68,189.48c1.78-1.19,5.23-3.15,10-3.75,6.08-.77,10.8,1.1,12.78,2.01"/>
      <path class="cls-10" d="m197.03,188.93c-1.78-1.19-5.23-3.15-10-3.75-6.08-.77-10.8,1.1-12.78,2.01"/>
    </g>
    <g id="Calque_27" data-name="Calque 27">
      <ellipse class="cls-10" cx="185.05" cy="200.56" rx="13.51" ry="12.12"/>
      <ellipse class="cls-10" cx="219.02" cy="198.86" rx="13.51" ry="11.53"/>
    </g>
    <g id="Calque_28" data-name="Calque 28">
      <path class="cls-3" d="m197.85,204.21c.27-.37,1.97-2.64,4.83-2.79,1.78-.09,3.12.69,3.66,1.06"/>
      <line class="cls-3" x1="171.27" y1="201.29" x2="167.31" y2="203.1"/>
      <line class="cls-3" x1="232.8" y1="197.4" x2="238.5" y2="202.4"/>
    </g>
    <g id="Calque_29" data-name="Calque 29">
      <path class="cls-8" d="m212.21,199.83c.66-.88,2.88-3.62,6.46-4.24,3.7-.64,6.44,1.4,7.22,2.03l1.13-1.87-2.26.88,1.15.69"/>
      <path class="cls-8" d="m191.98,201.77c-.74-.81-3.19-3.3-6.81-3.58-3.74-.29-6.29,1.96-7.01,2.65l-1.29-1.73,2.33.66-1.09.78"/>
    </g>
  </g>
  <g id="Calque_23" data-name="Calque 23">
    <path class="cls-14" d="m202.38,163.47s-9.58,12.5-7.29,23.44c0,0-26.98,7.19-32.71,15.42s-1.25-24.52,1.46-27.43c2.71-2.92,16.67-19.45,16.67-19.45l26.6-3.61,29.52,17.57,7.78,27.23s-27.23-9.38-31.12-9.17c.21.14-5.21-21.95-10.9-24Z"/>
  </g>
  <g id="Calque_21" data-name="Calque 21">
    <path class="cls-10" d="m167.9,180.91c-7.4,7.81-5.63,22.4-5.63,22.4,6.36-10.63,32.82-16.46,32.82-16.46-2.22-9.72,7.61-23.75,7.61-23.75"/>
    <path class="cls-10" d="m202.69,163.09s9.27,11.25,10.52,23.68l28.48,9.38s-5.2-21.23-11.02-25.04"/>
  </g>
  <g id="pants">
    <g id="Calque_11" data-name="Calque 11">
      <path class="cls-12" d="m221.07,359.86l58.9,3.33c29.45-.56,83.3,44.93,89.88,49.31.83.56,16.67,20.98,17.36,24.87s7.92,14.59-.56,26.12c-8.47,11.53-19.59,23.89-32.37,28.2-12.78,4.31-29.73,8.75-29.73,8.75,0,0-50.01,3.33-54.18,3.47s-70.71,1.39-74.32,2.36-32.64,2.92-32.64,2.92c0,0-44.87,5.28-47.65,10.28,0,0-2.64-30.84,1.94-39.03l10.84-45.56-58.76,62.79s-24.03-19.45-27.09-23.61-16.11-22.5-16.11-24.17-4.58-15.28,4.72-29.17c9.31-13.89,76.4-56.95,76.4-56.95l113.35-3.89Z"/>
    </g>
    <g id="Calque_12" data-name="Calque 12">
      <path class="cls-10" d="m283.23,425.67c4.87,2.85,11.52,6.09,19.79,8.44,10.16,2.89,19.07,3.38,25.42,3.23"/>
      <path class="cls-10" d="m311.98,428.17c1.19-.52,2.97-1.33,5.1-2.4,3.43-1.72,5.08-2.78,5.42-2.4.44.5-1.75,3.07-1.98,3.33-1.65,1.92-4.6,4.66-9.79,6.77"/>
    </g>
  </g>
  <g id="shoes">
    <g id="Calque_14" data-name="Calque 14">
      <path class="cls-13" d="m127.99,435.77s-15.52-12.4-22.92-13.65l-2.08-.83s-1.42-.96-1.43-.97c-.05-.03-2.69-1.81-2.73-1.85-.83-.16-2.04-.32-3.49-.46-1.85-.17-3.91-.22-4.74.25-1.67.94-3.75,3.54-3.75,3.54,0,0-5,14.17-5.94,20.11s-3.75,41.46-19.17,83.03c9.17,10.56,19.1,7.15,19.1,7.15,0,0,20.73-17.6,22.68-19.24,4.69-3.96,6.46-6.56,8.33-7.81s4.17-6.88,4.17-6.88c0,0,6.67-53.13,11.98-62.41Z"/>
    </g>
    <g id="Calque_16" data-name="Calque 16">
      <path class="cls-13" d="m347.3,494.53l1.77,17.09,4.9,30.32s1.46,9.58-5.83,9.17-15.84-1.35-19.9-3.96-15-11.88-15-11.88c0,0-14.9-13.86-18.75-16.98-3.85-3.13-21.98-13.65-26.57-13.96-4.58-.31,43.97-2.4,43.97-2.4,0,0,13.34-1.04,24.48-4.58s10.94-2.81,10.94-2.81Z"/>
    </g>
    <g id="Calque_15" data-name="Calque 15">
      <path class="cls-10" d="m115.54,493.39l-8.65-3.85,2.29,12.55,6.2-6.88s-14.59-.05-14.17-.36,5.63-5.99,5.63-5.99l2.4,13.91-1.35,1.98-14.06-.31s-3.49,1.51-.47,3.33c3.02,1.82,14.22-2.14,14.22-2.14,0,0-6.62,7.71-5.73,9.69s2.55.21,2.55.21l6.09-13.7,5.68-6.77-.63-1.67Z"/>
      <path class="cls-7" d="m102.57,421.81c-1.84,3.94-4.52,10.12-7.08,17.92-3.87,11.8-5.38,20.96-5.83,23.55-1.9,10.79-7.08,29.83-21.46,66.05"/>
    </g>
    <g id="Calque_17" data-name="Calque 17">
      <path class="cls-10" d="m331.99,499.05c4.66,13.51,8.19,23.62,10.7,30.42.44,1.19,1.37,3.71,2.15,7.22,1.27,5.68,1.37,10.52,1.25,13.75"/>
      <path class="cls-10" d="m282.46,508.77c1.41.04,3.53,0,6.04-.49,3.03-.58,4.18-1.33,5.14-.63.79.58.98,2.48,1.32,6.25.19,2.09.12,2.32.42,2.64,1.88,2.04,9.17-2.46,9.86-1.39.58.89-4.32,4.27-3.61,5.83.86,1.89,8.95-.98,10.14,1.25,1,1.86-3.68,5.69-2.85,6.81,1,1.35,8.1-3.69,10.14-1.88,1.02.9.87,3.59-2.5,10.28"/>
      <path class="cls-10" d="m281.14,508.42c-.07-.86,2.19-1.62,6.46-3.06,10.5-3.53,23.57-5.07,24.24-2.78.49,1.67-5.75,4.78-6.46,5.14-10.9,5.45-24.08,2.73-24.24.69Z"/>
    </g>
  </g>
  <g id="hoodie">
    <g id="Calque_7" data-name="Calque 7">
      <path class="cls-4" d="m173.78,256s-4.06-2.71-11.25,1.25-31.78,22.97-31.78,22.97c0,0-8.23,8.54-10.26,12.71s-20.68,21.77-23.23,23.7-11.51,9.9-12.76,12.4-3.65,9.01-3.28,14.27,1.46,11.72,2.92,14.06,15.63,14.17,17.55,15.58,24.17,15.52,24.17,15.52l20-56.99,118.2,50.11,20.21,15s12.19-11.51,16.1-17.03c3.91-5.52,14.33-16.88,14.33-16.88,0,0,7.29-6.77,8.18-8.65s5.1-7.81,5.21-11.3-2.5-10.52-6.36-14.59-12.87-11.41-12.87-11.41c0,0-16.57-12.45-19.48-18.02-2.34-3.28-13.6-17.45-13.6-17.45,0,0-8.23-13.02-14.53-18.75-6.3-5.73-23.14-11.43-27.97-9.48-39.57,15.97-59.49,2.97-59.49,2.97Z"/>
    </g>
    <g id="Calque_6" data-name="Calque 6">
      <path class="cls-4" d="m186.78,237.8s-17.16,2.11-21.35,13.67c-2.29,5.76,3.79,3.46,3.79,3.46l34.62,24.36s4.31,3.33,6.95-.14c4.72-2.92,27.68-26.69,27.68-26.69,0,0,4.58,1.35.99-4.12-1.96-2.98-9.98-9.82-20.4-9.4,0,0-.62,1.95-1.07,3.72-.83,3.26-1.56,6.75-3.57,10.13-1.45,2.45-5.67,5.56-7.66,6.38s-8.16-.6-10.45-2.19c-2.01-1.39-6.45-10.13-6.87-11.9-1.03-4.4-2.66-7.29-2.66-7.29h0Z"/>
    </g>
    <g id="Calque_9" data-name="Calque 9">
      <path class="cls-10" d="m156.89,324.57c-1.18-6.57.01-10.86,1.39-13.61,1.4-2.8,2.95-3.92,4.72-7.5,1.91-3.87,2.55-7.49,2.78-10"/>
      <path class="cls-10" d="m252.87,322.91c1.04-6.04,0-9.99-1.22-12.52-1.23-2.57-2.6-3.6-4.16-6.9-1.69-3.56-2.25-6.89-2.45-9.2"/>
    </g>
  </g>
  <g id="pc">
    <g id="Calque_18" data-name="Calque 18">
      <rect class="cls-6" x="127.93" y="327.94" width="156.97" height="101.96" rx="2.62" ry="2.62" transform="translate(-18.35 10.59) rotate(-2.81)"/>
    </g>
    <path class="cls-5" d="m202.68,376.51c2.44-3.25,5.62-.41,2.81,2.86-.79.99-3.04,3.33-3.04,3.33,0,0-3.46-3.24-3.65-3.72-2.05-5.13,3.35-3.6,3.87-2.47Z"/>
    <polyline class="cls-2" points="193.01 377.04 188.13 380.53 192.9 383.21"/>
    <polyline class="cls-2" points="212.15 375.01 217.02 378.5 212.25 381.18"/>
  </g>
</svg>