<?xml version="1.0" encoding="UTF-8"?>
<svg xmlns="http://www.w3.org/2000/svg" width="149.38mm" height="149.38mm" viewBox="0 0 423.43 423.43">
  <defs>
    <style>
      .cls-1 {
        fill: #d8d8d8;
      }

      .cls-2, .cls-3, .cls-4, .cls-5, .cls-6, .cls-7, .cls-8, .cls-9, .cls-10, .cls-11, .cls-12, .cls-13 {
        stroke: #964e4e;
        stroke-linecap: round;
      }

      .cls-2, .cls-3, .cls-4, .cls-5, .cls-6, .cls-7, .cls-9, .cls-10, .cls-11, .cls-12, .cls-13 {
        stroke-linejoin: round;
      }

      .cls-2, .cls-3, .cls-8, .cls-10 {
        fill: none;
      }

      .cls-3, .cls-8 {
        stroke-width: .75px;
      }

      .cls-4 {
        fill: #b2d0b0;
      }

      .cls-4, .cls-6, .cls-7, .cls-9, .cls-10, .cls-11, .cls-12, .cls-13 {
        stroke-width: .5px;
      }

      .cls-5 {
        fill: #964e4e;
      }

      .cls-6 {
        fill: #d1d0d1;
      }

      .cls-7 {
        fill: #262624;
      }

      .cls-8 {
        stroke-miterlimit: 10;
      }

      .cls-9, .cls-14 {
        fill: #fbc16e;
      }

      .cls-11 {
        fill: #fbd3c5;
      }

      .cls-12 {
        fill: #3c3c3b;
      }

      .cls-13 {
        fill: #302d29;
      }
    </style>
  </defs>
  <g id="Calque_24" data-name="Calque 24">
    <circle class="cls-1" cx="152.38" cy="172.03" r="113.82"/>
  </g>
  <g id="hair">
    <g id="Calque_22" data-name="Calque 22">
      <path class="cls-9" d="m144.68,65.77s-4.22-1.61-8.12.38-16.68,12.38-17.6,23.85-.69,8.25-.69,8.25c0,0-1.15,6.08-4.36,9.06s-11.58,11.92-11.58,11.92c0,0-4.7,3.21-4.36,12.73.17,4.82-4.01,6.76-5.85,8.71,0,0-3.21,3.68-3.21,8.83,0,1.26-.92,6.19,6.65,8.48s110.06-1.83,110.06-1.83c0,0,11.69-3.1,4.01-13.41,0,0-7.34-3.44-7.11-9.63s1.72-11.35-6.08-15.59-14.22-2.87-18.11-11.46c-2.41-8.6-4.36-20.52-4.36-20.52,0,0-5.35-17.87-17.85-19.95-8.25-1.38-11.46.19-11.46.19Z"/>
    </g>
  </g>
  <g id="body">
    <g id="Calque_3" data-name="Calque 3">
      <path class="cls-11" d="m140.4,113s1.68,2.14,1.83,4.36c.13,1.92.19,5.46.19,5.46l3.71,5.27,10.32-.04,1.91-4.7.15-6s.65-3.25,1.64-4.13-19.76-.23-19.76-.23Z"/>
    </g>
    <g id="Calque_4" data-name="Calque 4">
      <path class="cls-11" d="m131.23,96.88c-1-2.84-4.77-.86-2.87,1.8,1.29,1.66-.11,2.76.51,4.24.98,2.36,3.33,1.73,2.82-.76,0,0-.46-5.27-.46-5.27Z"/>
      <path class="cls-11" d="m169.03,96.8c1-2.84,4.77-.86,2.87,1.8-1.29,1.66.11,2.76-.51,4.24-.98,2.36-3.33,1.73-2.82-.76,0,0,.46-5.27.46-5.27Z"/>
    </g>
    <g id="Calque_2" data-name="Calque 2">
      <path class="cls-11" d="m169.06,90.11c-.09,15.03.05,18.37-14.45,26.71-.34.12-3.15,1.81-6.19.34-6.41-3.08-14.19-7.24-16.02-11.78-1.46-3.61-1.82-17.96-1.29-22.04l8.03-10.55,10.66-4.01,13.18,6.31,6.08,15.02Z"/>
    </g>
  </g>
  <g id="face">
    <g id="Calque_26" data-name="Calque 26">
      <path class="cls-10" d="m146.07,107.94c.42.55,1.49,1.78,3.27,2.24,2.04.55,4.75-.4,6.5-2.64"/>
      <path class="cls-10" d="m149.74,95.1c.24,1.36.62,2.36.92,3.01.56,1.23,1.06,1.74,1.03,2.62-.03.89-.59,1.6-1.03,2.03"/>
      <path class="cls-10" d="m151.73,88.05c.98-.65,2.88-1.73,5.5-2.06,3.34-.42,5.94.6,7.03,1.11"/>
      <path class="cls-10" d="m146.97,87.74c-.98-.65-2.88-1.73-5.5-2.06-3.34-.42-5.94.6-7.03,1.11"/>
    </g>
    <g id="Calque_27" data-name="Calque 27">
      <ellipse class="cls-10" cx="140.38" cy="94.14" rx="7.43" ry="6.67"/>
      <ellipse class="cls-10" cx="159.07" cy="93.21" rx="7.43" ry="6.34"/>
    </g>
    <g id="Calque_28" data-name="Calque 28">
      <path class="cls-3" d="m147.42,96.15c.15-.2,1.08-1.45,2.66-1.53.98-.05,1.71.38,2.01.58"/>
      <line class="cls-3" x1="132.79" y1="94.54" x2="130.62" y2="95.54"/>
      <line class="cls-3" x1="166.65" y1="92.4" x2="169.79" y2="95.16"/>
    </g>
    <g id="Calque_29" data-name="Calque 29">
      <path class="cls-8" d="m155.32,93.74c.36-.48,1.58-1.99,3.55-2.33,2.03-.35,3.54.77,3.97,1.12l.62-1.03-1.24.48.64.38"/>
      <path class="cls-8" d="m144.19,94.81c-.4-.44-1.76-1.82-3.75-1.97-2.06-.16-3.46,1.08-3.86,1.46l-.71-.95,1.28.36-.6.43"/>
    </g>
  </g>
  <g id="Calque_23" data-name="Calque 23">
    <path class="cls-14" d="m149.92,73.73s-5.27,6.88-4.01,12.9c0,0-14.85,3.96-18,8.48s-.69-13.49.8-15.1,9.17-10.7,9.17-10.7l14.64-1.99,16.24,9.67,4.28,14.98s-14.98-5.16-17.12-5.04c.11.08-2.87-12.08-6-13.2Z"/>
  </g>
  <g id="Calque_21" data-name="Calque 21">
    <path class="cls-10" d="m130.94,83.33c-4.07,4.3-3.1,12.32-3.1,12.32,3.5-5.85,18.06-9.06,18.06-9.06-1.22-5.35,4.18-13.07,4.18-13.07"/>
    <path class="cls-10" d="m150.09,73.52s5.1,6.19,5.79,13.03l15.67,5.16s-2.86-11.68-6.07-13.78"/>
  </g>
  <g id="pants">
    <g id="Calque_11" data-name="Calque 11">
      <path class="cls-12" d="m160.2,181.79l32.41,1.83c16.2-.31,45.83,24.72,49.45,27.13.46.31,9.17,11.54,9.55,13.68s4.36,8.03-.31,14.37c-4.66,6.34-10.78,13.15-17.81,15.52s-16.36,4.82-16.36,4.82c0,0-27.52,1.83-29.81,1.91s-38.9.76-40.89,1.3-17.96,1.61-17.96,1.61c0,0-24.69,2.9-26.22,5.66,0,0-1.45-16.97,1.07-21.48l5.96-25.07-32.33,34.55s-13.22-10.7-14.9-12.99-8.87-12.38-8.87-13.3-2.52-8.41,2.6-16.05,42.04-31.34,42.04-31.34l62.37-2.14Z"/>
    </g>
    <g id="Calque_12" data-name="Calque 12">
      <path class="cls-10" d="m194.4,218c2.68,1.57,6.34,3.35,10.89,4.64,5.59,1.59,10.49,1.86,13.99,1.78"/>
      <path class="cls-10" d="m210.22,219.38c.65-.29,1.63-.73,2.81-1.32,1.89-.95,2.8-1.53,2.98-1.32.24.28-.97,1.69-1.09,1.83-.91,1.05-2.53,2.56-5.39,3.73"/>
    </g>
  </g>
  <g id="shoes">
    <g id="Calque_14" data-name="Calque 14">
      <path class="cls-13" d="m108.99,223.56s-8.54-6.82-12.61-7.51l-1.15-.46s-.78-.53-.79-.53c-.03-.02-1.48-1-1.5-1.02-.46-.09-1.12-.18-1.92-.25-1.02-.09-2.15-.12-2.61.14-.92.52-2.06,1.95-2.06,1.95,0,0-2.75,7.8-3.27,11.06s-2.06,22.82-10.55,45.69c5.04,5.81,10.51,3.94,10.51,3.94,0,0,11.41-9.68,12.48-10.59,2.58-2.18,3.55-3.61,4.59-4.3s2.29-3.78,2.29-3.78c0,0,3.67-29.24,6.59-34.34Z"/>
    </g>
    <g id="Calque_16" data-name="Calque 16">
      <path class="cls-13" d="m229.65,255.89l.97,9.4,2.69,16.68s.8,5.27-3.21,5.04-8.71-.75-10.95-2.18-8.25-6.54-8.25-6.54c0,0-8.2-7.62-10.32-9.34s-12.1-7.51-14.62-7.68,24.19-1.32,24.19-1.32c0,0,7.34-.57,13.47-2.52s6.02-1.55,6.02-1.55Z"/>
    </g>
    <g id="Calque_15" data-name="Calque 15">
      <path class="cls-10" d="m102.14,255.26l-4.76-2.12,1.26,6.91,3.41-3.78s-8.03-.03-7.8-.2,3.1-3.3,3.1-3.3l1.32,7.65-.75,1.09-7.74-.17s-1.92.83-.26,1.83,7.82-1.18,7.82-1.18c0,0-3.64,4.24-3.15,5.33s1.4.11,1.4.11l3.35-7.54,3.12-3.73-.34-.92Z"/>
      <path class="cls-7" d="m95,215.88c-1.01,2.17-2.49,5.57-3.9,9.86-2.13,6.49-2.96,11.53-3.21,12.96-1.04,5.94-3.9,16.42-11.81,36.34"/>
    </g>
    <g id="Calque_17" data-name="Calque 17">
      <path class="cls-10" d="m221.23,258.38c2.56,7.43,4.51,13,5.89,16.74.24.65.75,2.04,1.18,3.97.7,3.13.75,5.79.69,7.57"/>
      <path class="cls-10" d="m193.98,263.73c.78.02,1.94,0,3.32-.27,1.67-.32,2.3-.73,2.83-.34.44.32.54,1.36.73,3.44.1,1.15.07,1.28.23,1.45,1.03,1.12,5.05-1.35,5.43-.76.32.49-2.38,2.35-1.99,3.21.47,1.04,4.92-.54,5.58.69.55,1.03-2.02,3.13-1.57,3.75.55.74,4.46-2.03,5.58-1.03.56.5.48,1.98-1.38,5.66"/>
      <path class="cls-10" d="m193.25,263.54c-.04-.47,1.21-.89,3.55-1.68,5.78-1.94,12.97-2.79,13.34-1.53.27.92-3.16,2.63-3.55,2.83-6,3-13.25,1.5-13.34.38Z"/>
    </g>
  </g>
  <g id="hoodie">
    <g id="Calque_7" data-name="Calque 7">
      <path class="cls-4" d="m134.18,124.65s-2.24-1.49-6.19.69-17.48,12.64-17.48,12.64c0,0-4.53,4.7-5.65,6.99s-11.38,11.98-12.78,13.04-6.33,5.45-7.02,6.82-2.01,4.96-1.81,7.85.8,6.45,1.61,7.74,8.6,7.8,9.66,8.57,13.3,8.54,13.3,8.54l11.01-31.36,65.04,27.57,11.12,8.25s6.71-6.33,8.86-9.37,7.88-9.29,7.88-9.29c0,0,4.01-3.73,4.5-4.76s2.81-4.3,2.87-6.22-1.38-5.79-3.5-8.03-7.08-6.28-7.08-6.28c0,0-9.11-6.85-10.72-9.92-1.29-1.81-7.48-9.6-7.48-9.6,0,0-4.53-7.17-8-10.32s-12.73-6.29-15.39-5.22c-21.77,8.79-32.73,1.63-32.73,1.63Z"/>
    </g>
    <g id="Calque_6" data-name="Calque 6">
      <path class="cls-4" d="m141.33,114.63s-9.44,1.16-11.75,7.52c-1.26,3.17,2.08,1.9,2.08,1.9l19.05,13.4s2.37,1.83,3.82-.08c2.6-1.61,15.23-14.68,15.23-14.68,0,0,2.52.75.54-2.26-1.08-1.64-5.49-5.4-11.23-5.17,0,0-.34,1.07-.59,2.05-.46,1.8-.86,3.71-1.96,5.57-.8,1.35-3.12,3.06-4.21,3.51s-4.49-.33-5.75-1.2c-1.11-.76-3.55-5.57-3.78-6.55-.57-2.42-1.46-4.01-1.46-4.01h0Z"/>
    </g>
    <g id="Calque_9" data-name="Calque 9">
      <path class="cls-10" d="m124.88,162.38c-.65-3.61,0-5.98.76-7.49.77-1.54,1.62-2.15,2.6-4.13,1.05-2.13,1.4-4.12,1.53-5.5"/>
      <path class="cls-10" d="m177.7,161.46c.57-3.32,0-5.5-.67-6.89-.68-1.42-1.43-1.98-2.29-3.8-.93-1.96-1.24-3.79-1.35-5.06"/>
    </g>
  </g>
  <g id="pc">
    <g id="Calque_18" data-name="Calque 18">
      <rect class="cls-6" x="108.95" y="164.23" width="86.37" height="56.1" rx="2.62" ry="2.62" transform="translate(-9.25 7.7) rotate(-2.81)"/>
    </g>
    <path class="cls-5" d="m150.08,190.95c1.34-1.79,3.09-.23,1.55,1.57-.43.55-1.67,1.83-1.67,1.83,0,0-1.9-1.78-2.01-2.04-1.13-2.82,1.84-1.98,2.13-1.36Z"/>
    <polyline class="cls-2" points="144.76 191.25 142.08 193.17 144.7 194.64"/>
    <polyline class="cls-2" points="155.29 190.13 157.97 192.05 155.35 193.52"/>
  </g>
</svg>